<!-- Pixella Cloud SVG -->
<svg
  class="animated-cloud pixella-cloud"
  width="150"
  height="150"
  viewBox="0 0 64 64"
  xmlns="http://www.w3.org/2000/svg"
>
  <g>
    <path
      d="M22 32c-3.314 0-6-2.686-6-6s2.686-6 6-6h4a6 6 0 1 1 0 12h-4zm20 0c-3.314 0-6-2.686-6-6s2.686-6 6-6h4a6 6 0 1 1 0 12h-4z"
      fill="#D8BFD8" <!-- Pastel Purple -->
      stroke="#BA55D3"
      stroke-width="2"
    />
    <path
      d="M24 24a10 10 0 0 0-9.9 9H6a10 10 0 0 0 0 20h40a10 10 0 0 0 0-20h-8.1A10 10 0 0 0 40 24H24z"
      fill="#E6E6FA" <!-- Lavender -->
      stroke="#BA55D3"
      stroke-width="2"
    />
    <!-- Adding small stars for creativity -->
    <circle cx="18" cy="22" r="1.5" fill="#FFDAB9" /> <!-- Peach Puff -->
    <circle cx="46" cy="26" r="1" fill="#FFDAB9" />
    <circle cx="34" cy="20" r="1" fill="#FFDAB9" />
  </g>
</svg>
