<!-- Pixella Cloud SVG -->
<svg
  class="animated-cloud pixella-cloud"
  width="150"
  height="150"
  viewBox="0 0 64 64"
  xmlns="http://www.w3.org/2000/svg"
>
  <defs>
    <!-- Gradient for Pastel Purple -->
    <linearGradient id="gradient-pixella" x1="0%" y1="0%" x2="100%" y2="0%">
      <stop offset="0%" stop-color="#D8BFD8" />
      <stop offset="100%" stop-color="#E6E6FA" />
    </linearGradient>
  </defs>
  <g>
    <!-- Main Cloud Body -->
    <path
      d="M22 32c-3.314 0-6-2.686-6-6s2.686-6 6-6h4a6 6 0 1 1 0 12h-4zm28 0c-3.314 0-6-2.686-6-6s2.686-6 6-6h4a6 6 0 1 1 0 12h-4z"
      fill="url(#gradient-pixella)"
      stroke="#BA55D3"
      stroke-width="2"
    />
    <!-- Top Curve of the Cloud -->
    <path
      d="M24 24a10 10 0 0 0-9.9 9H6a10 10 0 0 0 0 20h40a10 10 0 0 0 0-20h-6.687A10 10 0 0 0 40 24H24z"
      fill="#F0E6FF"
      stroke="#BA55D3"
      stroke-width="2"
    />
    <!-- Decorative Stars -->
    <circle cx="18" cy="22" r="1.5" fill="#FFDAB9" /> <!-- Peach Puff -->
    <circle cx="46" cy="26" r="1" fill="#FFDAB9" />
    <circle cx="34" cy="20" r="1" fill="#FFDAB9" />
  </g>
</svg>
