<!-- Groupay Cloud SVG -->
<svg
  class="animated-cloud groupay-cloud"
  width="150"
  height="150"
  viewBox="0 0 64 64"
  xmlns="http://www.w3.org/2000/svg"
>
  <g>
    <path
      d="M18 34c-2.209 0-4-1.791-4-4s1.791-4 4-4h2a6 6 0 1 1 0 12h-2zm28 0c-2.209 0-4-1.791-4-4s1.791-4 4-4h2a6 6 0 1 1 0 12h-2z"
      fill="#98FB98" <!-- Pastel Green -->
      stroke="#32CD32"
      stroke-width="2"
    />
    <path
      d="M24 24a12 12 0 0 0-11.313 16H6a12 12 0 0 0 0 24h40a12 12 0 0 0 0-24h-6.687A12 12 0 0 0 40 24H24z"
      fill="#C1FFC1" <!-- Light Pastel Green -->
      stroke="#32CD32"
      stroke-width="2"
    />
    <!-- Adding leaves to symbolize growth -->
    <path
      d="M28 20l-3-5h6z"
      fill="#98FB98" <!-- Pastel Green -->
    />
    <path
      d="M36 22l-4-3h8z"
      fill="#98FB98" <!-- Pastel Green -->
    />
  </g>
</svg>
