<!-- Colorify Cloud SVG -->
<svg
  class="animated-cloud colorify-cloud"
  width="150"
  height="150"
  viewBox="0 0 64 64"
  xmlns="http://www.w3.org/2000/svg"
>
  <g>
    <path
      d="M18 36c-3.314 0-6-2.686-6-6 0-3.314 2.686-6 6-6h2a6 6 0 1 1 0 12h-2zm28 0c-3.314 0-6-2.686-6-6 0-3.314 2.686-6 6-6h2a6 6 0 1 1 0 12h-2z"
      fill="#FFB3BA" <!-- Pastel Pink -->
      stroke="#FF6F61"
      stroke-width="2"
    />
    <path
      d="M24 24a8 8 0 0 0-7.746 5.333A9.986 9.986 0 0 0 8 36h40a10 10 0 0 0-9.254-10.667A8 8 0 0 0 40 24H24z"
      fill="#FFDFDF" <!-- Light Pastel Pink -->
      stroke="#FF6F61"
      stroke-width="2"
    />
  </g>
</svg>
